<svg xmlns="http://www.w3.org/2000/svg" xmlns:xlink="http://www.w3.org/1999/xlink" viewBox="0 0 260.77 70.56"><defs><style>.cls-1{fill:url(#New_Gradient_Swatch_copy_3);}</style><linearGradient id="New_Gradient_Swatch_copy_3" y1="35.28" x2="260.77" y2="35.28" gradientUnits="userSpaceOnUse"><stop offset="0" stop-color="#ac8025"/><stop offset="0.29" stop-color="#d4a947"/><stop offset="0.68" stop-color="#fffbbb"/><stop offset="1" stop-color="#dcb257"/><stop offset="1" stop-color="#d3b26d"/></linearGradient></defs><g id="Layer_2" data-name="Layer 2"><g id="Layer_1-2" data-name="Layer 1"><path class="cls-1" d="M225.49,70.56H35.28A35.39,35.39,0,0,1,0,35.28H0A35.39,35.39,0,0,1,35.28,0H225.49a35.39,35.39,0,0,1,35.28,35.28h0A35.39,35.39,0,0,1,225.49,70.56Z"/><path d="M72.94,35.82a4.16,4.16,0,0,1-.56,5.6,5.81,5.81,0,0,1-3.87,1.17H61.12V26.72h7.14a5.88,5.88,0,0,1,3.79,1.11,4,4,0,0,1,.63,5.33,3.77,3.77,0,0,1-2,1.29A3.66,3.66,0,0,1,72.94,35.82Zm-8-2.68h2.53A2.23,2.23,0,0,0,69,32.72a1.5,1.5,0,0,0,.51-1.23A1.54,1.54,0,0,0,69,30.24a2.23,2.23,0,0,0-1.46-.42H65ZM69.33,39a1.56,1.56,0,0,0,.53-1.28,1.62,1.62,0,0,0-.55-1.31A2.26,2.26,0,0,0,67.78,36H65v3.51h2.85A2.29,2.29,0,0,0,69.33,39Z"/><path d="M81.11,41.7a7.77,7.77,0,0,1-3-2.9,8.51,8.51,0,0,1,0-8.37,7.85,7.85,0,0,1,3-2.9,8.6,8.6,0,0,1,8.2,0,7.59,7.59,0,0,1,2.94,2.9,8.61,8.61,0,0,1,0,8.37,7.65,7.65,0,0,1-2.94,2.9,8.58,8.58,0,0,1-8.19,0ZM88.25,38a4.8,4.8,0,0,0,1.14-3.34,4.82,4.82,0,0,0-1.14-3.36,3.89,3.89,0,0,0-3-1.25,3.94,3.94,0,0,0-3.06,1.24A4.79,4.79,0,0,0,81,34.61,4.77,4.77,0,0,0,82.15,38a3.92,3.92,0,0,0,3.06,1.26A3.87,3.87,0,0,0,88.25,38Z"/><path d="M100.57,41.7a7.77,7.77,0,0,1-3-2.9,8.51,8.51,0,0,1,0-8.37,7.85,7.85,0,0,1,3-2.9,8.6,8.6,0,0,1,8.2,0,7.59,7.59,0,0,1,2.94,2.9,8.61,8.61,0,0,1,0,8.37,7.65,7.65,0,0,1-2.94,2.9,8.58,8.58,0,0,1-8.19,0ZM107.71,38a4.8,4.8,0,0,0,1.14-3.34,4.82,4.82,0,0,0-1.14-3.36,3.89,3.89,0,0,0-3-1.25,3.94,3.94,0,0,0-3.06,1.24,4.79,4.79,0,0,0-1.14,3.37A4.77,4.77,0,0,0,101.61,38a3.92,3.92,0,0,0,3.06,1.26A3.87,3.87,0,0,0,107.71,38Z"/><path d="M125.83,42.59l-5.34-7v7h-3.86V26.72h3.86v7l5.29-7h4.55l-6.15,7.77,6.37,8.1Z"/><path d="M154.76,42.59h-3.87l-6.46-9.79v9.79h-3.87V26.72h3.87l6.46,9.83V26.72h3.87Z"/><path d="M162.66,41.7a7.77,7.77,0,0,1-3-2.9,8.51,8.51,0,0,1,0-8.37,7.85,7.85,0,0,1,3-2.9,8.6,8.6,0,0,1,8.2,0,7.59,7.59,0,0,1,2.94,2.9,8.61,8.61,0,0,1,0,8.37,7.65,7.65,0,0,1-2.94,2.9,8.58,8.58,0,0,1-8.19,0ZM169.8,38a4.8,4.8,0,0,0,1.14-3.34,4.82,4.82,0,0,0-1.14-3.36,3.89,3.89,0,0,0-3-1.25,3.94,3.94,0,0,0-3.06,1.24,4.79,4.79,0,0,0-1.14,3.37A4.77,4.77,0,0,0,163.7,38a3.92,3.92,0,0,0,3.06,1.26A3.87,3.87,0,0,0,169.8,38Z"/><path d="M200.55,26.72l-4.13,15.87h-4.68l-2.53-10.45-2.63,10.45h-4.67l-4-15.87H182l2.28,11.55,2.83-11.55h4.25l2.71,11.55,2.3-11.55Z"/></g></g></svg>